HIERARCHY
ROOT root
{
	OFFSET 0.000000 0.000000 0.000000
	CHANNELS 6 Xposition Yposition Zposition Zrotation Yrotation Xrotation
	JOINT lhip
	{
		OFFSET 0.058581 -0.082280 -0.017664
		CHANNELS 3 Zrotation Yrotation Xrotation
		JOINT lknee
		{
			OFFSET 0.043451 -0.386469 0.008037
			CHANNELS 3 Zrotation Yrotation Xrotation
			JOINT lankle
			{
				OFFSET -0.014790 -0.426874 -0.037428
				CHANNELS 3 Zrotation Yrotation Xrotation
				JOINT ltoe
				{
					OFFSET 0.041054 -0.060286 0.122042
					CHANNELS 3 Zrotation Yrotation Xrotation
					End Site
					{
						OFFSET 0.000000 0.000000 0.000000
					}
				}
			}
		}
	}
	JOINT rhip
	{
		OFFSET -0.060310 -0.090513 -0.013543
		CHANNELS 3 Zrotation Yrotation Xrotation
		JOINT rknee
		{
			OFFSET -0.043257 -0.383688 -0.004843
			CHANNELS 3 Zrotation Yrotation Xrotation
			JOINT rankle
			{
				OFFSET 0.019056 -0.420046 -0.034562
				CHANNELS 3 Zrotation Yrotation Xrotation
				JOINT rtoe
				{
					OFFSET -0.034840 -0.062106 0.130323
					CHANNELS 3 Zrotation Yrotation Xrotation
					End Site
					{
						OFFSET 0.000000 0.000000 0.000000
					}
				}
			}
		}
	}
	JOINT lowerback
	{
		OFFSET 0.004439 0.124404 -0.038385
		CHANNELS 3 Zrotation Yrotation Xrotation
		JOINT upperback
		{
			OFFSET 0.004488 0.137956 0.026820
			CHANNELS 3 Zrotation Yrotation Xrotation
			JOINT chest
			{
				OFFSET -0.002265 0.056032 0.002855
				CHANNELS 3 Zrotation Yrotation Xrotation
				JOINT lowerneck
				{
					OFFSET -0.013390 0.211636 -0.033468
					CHANNELS 3 Zrotation Yrotation Xrotation
					JOINT upperneck
					{
						OFFSET 0.010113 0.088937 0.050410
						CHANNELS 3 Zrotation Yrotation Xrotation
						End Site
						{
							OFFSET 0.000000 0.000000 0.000000
						}
					}
				}
				JOINT lclavicle
				{
					OFFSET 0.071702 0.114000 -0.018898
					CHANNELS 3 Zrotation Yrotation Xrotation
					JOINT lshoulder
					{
						OFFSET 0.122921 0.045205 -0.019046
						CHANNELS 3 Zrotation Yrotation Xrotation
						JOINT lelbow
						{
							OFFSET 0.255332 -0.015649 -0.022946
							CHANNELS 3 Zrotation Yrotation Xrotation
							JOINT lwrist
							{
								OFFSET 0.265709 0.012698 -0.007375
								CHANNELS 3 Zrotation Yrotation Xrotation
								End Site
								{
									OFFSET 0.000000 0.000000 0.000000
								}
							}
						}
					}
				}
				JOINT rclavicle
				{
					OFFSET -0.082954 0.112472 -0.023707
					CHANNELS 3 Zrotation Yrotation Xrotation
					JOINT rshoulder
					{
						OFFSET -0.113228 0.046853 -0.008472
						CHANNELS 3 Zrotation Yrotation Xrotation
						JOINT relbow
						{
							OFFSET -0.260127 -0.014369 -0.031269
							CHANNELS 3 Zrotation Yrotation Xrotation
							JOINT rwrist
							{
								OFFSET -0.269108 0.006794 -0.006027
								CHANNELS 3 Zrotation Yrotation Xrotation
								End Site
								{
									OFFSET 0.000000 0.000000 0.000000
								}
							}
						}
					}
				}
			}
		}
	}
}
MOTION
Frames: 7
Frame Time: 0.033333
1.149298 0.165573 1.127573 -86.355828 3.574410 87.236694 0.386943 1.007253 7.005199 -3.102295 -14.905628 1.677324 5.233878 8.324431 -15.590697 0.000000 -0.000000 0.000000 4.867895 -0.892355 2.472692 3.591142 0.859409 8.423381 2.454755 -5.617500 -11.299941 0.000000 -0.000000 0.000000 -1.859470 -0.148123 6.740996 2.411317 -3.456907 2.157486 1.267694 -2.935023 5.287153 4.700263 -4.375497 2.390543 2.185231 -7.934948 5.405926 -26.163237 6.332088 2.046718 -59.613505 -6.283069 6.979390 8.615291 -24.037238 2.905596 -3.351009 -0.111877 -8.593108 23.776037 -4.663906 -1.077512 61.385863 -0.495474 10.785598 -14.517609 27.771120 -5.238120 7.554777 -0.499730 -10.896623 
1.149079 0.165462 1.127721 -86.335773 3.554783 87.294238 0.362470 0.906549 6.950865 -3.112716 -14.900470 1.655144 5.053090 8.310118 -15.560886 0.000000 -0.000000 0.000000 4.849534 -0.732771 2.490164 3.632298 0.769052 8.328257 2.465391 -5.741572 -11.311408 0.000000 -0.000000 0.000000 -1.803116 -0.125076 6.656706 2.338894 -3.329582 2.053254 1.201500 -2.964730 5.390955 4.782611 -4.176662 2.053123 2.223250 -7.855406 5.495326 -26.085590 6.474643 1.995443 -59.667593 -6.328390 7.079663 8.736028 -24.056869 3.057344 -3.267741 -0.452624 -8.615959 23.846572 -4.818199 -1.262400 61.400860 -0.383785 10.939780 -14.443688 27.736250 -5.077975 7.385678 -0.496924 -10.904375 
1.148752 0.165481 1.127648 -86.283443 3.519245 87.283060 0.328256 0.926793 6.961221 -3.095515 -14.910469 1.711006 5.064234 8.289940 -15.579810 0.000000 -0.000000 0.000000 4.770440 -0.814973 2.539574 3.696177 0.823734 8.329640 2.504166 -5.664806 -11.322387 0.000000 -0.000000 0.000000 -1.812380 -0.049190 6.649460 2.350942 -3.295364 2.037677 1.221543 -2.987460 5.430387 4.794771 -4.372615 2.087740 2.101954 -8.044972 5.507201 -26.020090 6.463513 1.844673 -59.766235 -6.338409 7.110844 8.640207 -23.836622 3.018091 -2.995321 -0.340429 -8.608435 23.819663 -4.814072 -1.354864 61.363092 -0.297083 11.008646 -14.253542 27.546106 -4.943752 7.239322 -0.401692 -10.811899 
1.148215 0.165583 1.127553 -86.217316 3.525246 87.282096 0.269410 0.834101 7.018069 -2.981523 -15.056114 1.703299 5.080345 8.368701 -15.794741 0.000000 -0.000000 0.000000 4.782942 -0.905725 2.560775 3.732894 0.875977 8.324395 2.513422 -5.774779 -11.455604 0.000000 -0.000000 0.000000 -1.793795 -0.057664 6.489376 2.335158 -3.262670 2.162586 1.201689 -2.958522 5.552053 4.949573 -4.309945 1.799206 2.070098 -8.084336 5.500183 -26.154549 6.552697 1.631665 -59.578181 -6.348205 7.113967 8.609675 -23.900647 2.835044 -2.957511 -0.381336 -8.548631 24.001910 -4.823234 -1.544440 61.234396 -0.307632 11.118538 -14.185651 27.544855 -4.940926 7.164515 -0.576597 -10.601824 
1.148150 0.165726 1.127583 -86.134816 3.562159 87.279834 0.253570 0.715227 7.012229 -2.843619 -15.327866 1.763954 5.250967 8.452752 -16.172812 0.000000 -0.000000 0.000000 4.844759 -0.905359 2.559110 3.736069 0.845468 8.377055 2.501240 -5.797191 -11.555047 0.000000 -0.000000 0.000000 -1.785822 -0.050315 6.464995 2.323854 -3.266711 2.194789 1.231729 -2.977132 5.520320 4.992330 -4.249255 1.967495 2.184477 -7.980755 5.509431 -26.093115 6.490984 1.735911 -59.643110 -6.339743 7.093789 8.694877 -23.998918 2.756306 -3.014936 -0.346091 -8.692764 23.974009 -4.812221 -1.463958 61.313927 -0.292034 11.035638 -14.208272 27.527319 -4.897457 7.241872 -0.684210 -10.566394 
1.147363 0.165709 1.127448 -86.100788 3.528083 87.204868 0.229114 0.842123 7.088451 -2.914170 -15.250570 1.907527 5.228564 8.372493 -16.089031 0.000000 -0.000000 0.000000 4.855161 -0.865202 2.730869 3.699672 0.627209 8.142345 2.611972 -5.949225 -12.028932 0.000000 -0.000000 0.000000 -1.878377 -0.018207 6.517702 2.342185 -3.241852 2.224799 1.283964 -2.951766 5.533165 5.042876 -4.194093 1.802987 2.279669 -8.035598 5.439429 -26.093551 6.570975 1.650377 -59.591663 -6.325165 7.117389 8.561076 -24.132586 2.825785 -2.933996 -0.328258 -8.668371 24.003326 -4.856646 -1.520856 61.292447 -0.303743 11.026282 -14.152139 27.436804 -4.857036 7.214110 -0.784339 -10.467638 
1.147276 0.165710 1.127489 -86.160191 3.569160 87.219375 0.187135 0.594754 7.026682 -2.846143 -15.143151 2.088979 5.301431 8.518362 -16.198854 0.000000 -0.000000 0.000000 4.898001 -0.829286 2.632975 3.706339 0.715775 8.399912 2.536276 -5.932280 -11.736311 0.000000 -0.000000 0.000000 -1.785855 0.037240 6.568429 2.319008 -3.185743 2.168354 1.265620 -2.914203 5.497186 4.923436 -3.893414 1.832967 2.411988 -7.758844 5.501934 -26.068489 6.495743 1.611264 -59.585995 -6.325668 7.135794 8.536150 -24.059122 2.867404 -2.926754 -0.364153 -8.676340 23.957071 -4.890666 -1.503703 61.307444 -0.441543 11.031075 -14.159505 27.374825 -4.869292 7.267566 -0.700988 -10.636520 
